<svg width="24" height="24" viewBox="0 0 24 24" fill="none" xmlns="http://www.w3.org/2000/svg">
<g clip-path="url(#clip0_3_116)">
<g clip-path="url(#clip1_3_116)">
<g clip-path="url(#clip2_3_116)">
<path d="M16.4909 3.9994C18.0895 3.9994 19.6226 4.63154 20.7529 5.75676C21.8833 6.88198 22.5183 8.4081 22.5183 9.9994V13.9994C22.5183 15.5907 21.8833 17.1168 20.7529 18.242C19.6226 19.3673 18.0895 19.9994 16.4909 19.9994H6.44524C4.84668 19.9994 3.31359 19.3673 2.18323 18.242C1.05287 17.1168 0.417847 15.5907 0.417847 13.9994V9.9994C0.417847 8.4081 1.05287 6.88198 2.18323 5.75676C3.31359 4.63154 4.84668 3.9994 6.44524 3.9994H16.4909ZM16.4909 5.9994H6.44524C5.41432 5.9994 4.42282 6.39383 3.67584 7.10112C2.92887 7.80841 2.48355 8.77444 2.432 9.7994L2.42698 9.9994V13.9994C2.42698 15.0256 2.82322 16.0126 3.53373 16.7562C4.24425 17.4998 5.21469 17.9431 6.24433 17.9944L6.44524 17.9994H16.4909C17.5218 17.9994 18.5133 17.605 19.2603 16.8977C20.0073 16.1904 20.4526 15.2244 20.5042 14.1994L20.5092 13.9994V9.9994C20.5092 8.97316 20.1129 7.98617 19.4024 7.24259C18.6919 6.499 17.7215 6.05571 16.6918 6.0044L16.4909 5.9994ZM9.45894 8.9994V10.9994H11.4681V12.9994H9.45794L9.45894 14.9994H7.44981L7.44881 12.9994H5.44068V10.9994H7.44981V8.9994H9.45894ZM17.4955 12.9994V14.9994H15.4863V12.9994H17.4955ZM15.4863 8.9994V10.9994H13.4772V8.9994H15.4863Z" fill="#868686"/>
</g>
</g>
</g>
<defs>
<clipPath id="clip0_3_116">
<rect width="24" height="24" fill="white"/>
</clipPath>
<clipPath id="clip1_3_116">
<rect width="24" height="24" fill="white"/>
</clipPath>
<clipPath id="clip2_3_116">
<rect width="24" height="24" fill="white"/>
</clipPath>
</defs>
</svg>
