<svg width="47" height="46" viewBox="0 0 47 46" fill="none" xmlns="http://www.w3.org/2000/svg">
<path d="M14.4 0.400024L18.4 4.20001C19.9 5.60001 20.7 7.50002 20.7 9.60002C20.7 11.6 21.5 13.5 22.9 14.9L23.4 15.4L28 0.500015" fill="#1A1919"/>
<path d="M0.799988 13.7L6.29999 13.5C8.29999 13.4 10.3 14.2 11.7 15.6C13.1 17 15 17.7 17 17.7H17.7L10.3 4" fill="#1A1919"/>
<path d="M0.800003 32.7L4.5 28.7C5.9 27.2 7.8 26.3 9.8 26.3C11.8 26.3 13.6 25.4 15 24L15.5 23.5L0.5 19.2" fill="#1A1919"/>
<path d="M14.4 45.9L14.1 40.4C14 38.4 14.7 36.4 16.1 34.9C17.4 33.5 18.2 31.5 18.1 29.6V28.9L4.5 36.6" fill="#1A1919"/>
<path d="M33.4 45.5L29.3 41.9C27.8 40.6 26.9 38.7 26.8 36.6C26.7 34.6 25.8 32.8 24.4 31.4L23.9 30.9L19.9 46" fill="#1A1919"/>
<path d="M46.4 31.6L40.9 32C38.9 32.2 36.9 31.5 35.4 30.1C33.9 28.8 32 28.1 30 28.2H29.3L37.3 41.6" fill="#1A1919"/>
<path d="M45.5 12.7L42 16.9C40.7 18.4 38.8 19.4 36.8 19.5C34.8 19.6 33 20.5 31.7 22L31.3 22.5L46.5 26.1" fill="#1A1919"/>
<path d="M31.4 0L31.9 5.5C32.1 7.5 31.5 9.50001 30.1 11.1C28.8 12.6 28.2 14.5 28.3 16.5L28.4 17.2L41.6 8.90001" fill="#1A1919"/>
</svg>
